REM DIRINDEX 1\5,1\2\6,1\2\7,1\3\8,1\3\9,1\3\10,1\3\11,1\4\12,1\4\13,1\4\14
REM DIRNAME folder01,folder02,folder03,folder04,folder05,folder06,folder07,folder08,folder09,folder10,folder11,folder12,folder13,folder14
TITLE ""
FILE "4Q_t_048-063.mp3" MP3
  TRACK 01 AUDIO
    TITLE "6:cjc042_1074"
    INDEX 01 00:00:00
  TRACK 02 AUDIO
    TITLE "0:"
    INDEX 01 00:00:64
  TRACK 03 AUDIO
    TITLE "7:cjc042_1075"
    INDEX 01 00:01:40
  TRACK 04 AUDIO
    TITLE "0:"
    INDEX 01 00:03:49
  TRACK 05 AUDIO
    TITLE "6:cjc042_1076"
    INDEX 01 00:04:21
  TRACK 06 AUDIO
    TITLE "0:"
    INDEX 01 00:05:16
  TRACK 07 AUDIO
    TITLE "7:cjc042_1077"
    INDEX 01 00:06:02
  TRACK 08 AUDIO
    TITLE "0:"
    INDEX 01 00:13:49
  TRACK 09 AUDIO
    TITLE "6:cjc042_1078"
    INDEX 01 00:14:21
  TRACK 10 AUDIO
    TITLE "0:"
    INDEX 01 00:15:34
  TRACK 11 AUDIO
    TITLE "7:cjc042_1079"
    INDEX 01 00:16:10
  TRACK 12 AUDIO
    TITLE "0:"
    INDEX 01 00:17:16
  TRACK 13 AUDIO
    TITLE "6:cjc042_1080"
    INDEX 01 00:17:67
  TRACK 14 AUDIO
    TITLE "0:"
    INDEX 01 00:19:07
  TRACK 15 AUDIO
    TITLE "7:cjc042_1081"
    INDEX 01 00:19:50
  TRACK 16 AUDIO
    TITLE "0:"
    INDEX 01 00:26:58
  TRACK 17 AUDIO
    TITLE "6:cjc042_1082"
    INDEX 01 00:27:30
  TRACK 18 AUDIO
    TITLE "0:"
    INDEX 01 00:28:37
  TRACK 19 AUDIO
    TITLE "7:cjc042_1083"
    INDEX 01 00:29:09
  TRACK 20 AUDIO
    TITLE "0:"
    INDEX 01 00:30:26
  TRACK 21 AUDIO
    TITLE "6:cjc042_1084"
    INDEX 01 00:31:00
  TRACK 22 AUDIO
    TITLE "0:"
    INDEX 01 00:32:11
  TRACK 23 AUDIO
    TITLE "7:cjc042_1085"
    INDEX 01 00:32:60
  TRACK 24 AUDIO
    TITLE "0:"
    INDEX 01 00:36:05
  TRACK 25 AUDIO
    TITLE "6:cjc042_1086"
    INDEX 01 00:36:54
  TRACK 26 AUDIO
    TITLE "0:"
    INDEX 01 00:37:52
  TRACK 27 AUDIO
    TITLE "7:cjc042_1087"
    INDEX 01 00:38:28
  TRACK 28 AUDIO
    TITLE "0:"
    INDEX 01 00:41:61
  TRACK 29 AUDIO
    TITLE "6:cjc042_1088"
    INDEX 01 00:42:35
  TRACK 30 AUDIO
    TITLE "0:"
    INDEX 01 00:43:44
  TRACK 31 AUDIO
    TITLE "7:cjc042_1089"
    INDEX 01 00:44:14
  TRACK 32 AUDIO
    TITLE "0:"
    INDEX 01 00:47:01
  TRACK 33 AUDIO
    TITLE "6:cjc042_1090"
    INDEX 01 00:47:50
  TRACK 34 AUDIO
    TITLE "0:"
    INDEX 01 00:48:61
  TRACK 35 AUDIO
    TITLE "7:cjc042_1091"
    INDEX 01 00:49:29
  TRACK 36 AUDIO
    TITLE "0:"
    INDEX 01 00:52:28
  TRACK 37 AUDIO
    TITLE "6:cjc042_1092"
    INDEX 01 00:52:73
  TRACK 38 AUDIO
    TITLE "0:"
    INDEX 01 00:54:07
  TRACK 39 AUDIO
    TITLE "7:cjc042_1093"
    INDEX 01 00:54:50
  TRACK 40 AUDIO
    TITLE "0:"
    INDEX 01 00:58:34
  TRACK 41 AUDIO
    TITLE "6:cjc042_1094"
    INDEX 01 00:59:04
  TRACK 42 AUDIO
    TITLE "0:"
    INDEX 01 01:00:08
  TRACK 43 AUDIO
    TITLE "7:cjc042_1095"
    INDEX 01 01:00:55
  TRACK 44 AUDIO
    TITLE "0:"
    INDEX 01 01:01:56
  TRACK 45 AUDIO
    TITLE "6:cjc042_1096"
    INDEX 01 01:02:30
  TRACK 46 AUDIO
    TITLE "0:"
    INDEX 01 01:03:41
  TRACK 47 AUDIO
    TITLE "7:cjc042_1097"
    INDEX 01 01:04:21
  TRACK 48 AUDIO
    TITLE "0:"
    INDEX 01 01:09:05
  TRACK 49 AUDIO
    TITLE "6:cjc042_1098"
    INDEX 01 01:09:57
  TRACK 50 AUDIO
    TITLE "0:"
    INDEX 01 01:10:55
  TRACK 51 AUDIO
    TITLE "7:cjc042_1099"
    INDEX 01 01:11:29
  TRACK 52 AUDIO
    TITLE "0:"
    INDEX 01 01:12:34
  TRACK 53 AUDIO
    TITLE "6:cjc042_1100"
    INDEX 01 01:13:04
  TRACK 54 AUDIO
    TITLE "0:"
    INDEX 01 01:13:73
  TRACK 55 AUDIO
    TITLE "7:cjc042_1101"
    INDEX 01 01:14:49
  TRACK 56 AUDIO
    TITLE "0:"
    INDEX 01 01:21:20
  TRACK 57 AUDIO
    TITLE "6:cjc042_1102"
    INDEX 01 01:21:63
  TRACK 58 AUDIO
    TITLE "0:"
    INDEX 01 01:22:74
  TRACK 59 AUDIO
    TITLE "7:cjc042_1103"
    INDEX 01 01:23:48
  TRACK 60 AUDIO
    TITLE "0:"
    INDEX 01 01:24:73
  TRACK 61 AUDIO
    TITLE "6:cjc042_1104"
    INDEX 01 01:25:47
  TRACK 62 AUDIO
    TITLE "0:"
    INDEX 01 01:26:62
  TRACK 63 AUDIO
    TITLE "7:cjc042_1105"
    INDEX 01 01:27:34
  TRACK 64 AUDIO
    TITLE "0:"
    INDEX 01 01:29:70
